<?xml version="1.0" encoding="UTF-8"?>
<svg xmlns="http://www.w3.org/2000/svg" xmlns:xlink="http://www.w3.org/1999/xlink" width="24px" height="24px" viewBox="0 0 24 24" version="1.1">
<g id="surface1">
<path style=" stroke:none;fill-rule:nonzero;fill:rgb(0%,0%,0%);fill-opacity:1;" d="M 15.765625 7.074219 L 8.265625 7.074219 C 8.007812 7.074219 7.796875 6.867188 7.796875 6.605469 L 7.796875 4.261719 C 7.796875 4.003906 8.007812 3.792969 8.265625 3.792969 L 15.765625 3.792969 C 16.023438 3.792969 16.234375 4.003906 16.234375 4.261719 L 16.234375 6.605469 C 16.234375 6.867188 16.023438 7.074219 15.765625 7.074219 Z M 8.734375 6.136719 L 15.296875 6.136719 L 15.296875 4.730469 L 8.734375 4.730469 Z M 8.734375 6.136719 "/>
<path style=" stroke:none;fill-rule:nonzero;fill:rgb(0%,0%,0%);fill-opacity:1;" d="M 15.765625 23.480469 L 8.265625 23.480469 C 6.457031 23.480469 4.984375 22.011719 4.984375 20.199219 L 4.984375 11.292969 C 4.984375 9.179688 6.09375 7.320312 8.03125 6.203125 C 8.101562 6.160156 8.183594 6.136719 8.265625 6.136719 L 15.765625 6.136719 C 15.847656 6.136719 15.929688 6.160156 16 6.203125 C 18.078125 7.402344 19.046875 9.023438 19.046875 11.292969 L 19.046875 20.199219 C 19.046875 22.011719 17.574219 23.480469 15.765625 23.480469 Z M 8.394531 7.074219 C 6.800781 8.039062 5.921875 9.535156 5.921875 11.292969 L 5.921875 20.199219 C 5.921875 21.492188 6.972656 22.542969 8.265625 22.542969 L 15.765625 22.542969 C 17.058594 22.542969 18.109375 21.492188 18.109375 20.199219 L 18.109375 11.292969 C 18.109375 9.40625 17.347656 8.097656 15.636719 7.074219 Z M 8.394531 7.074219 "/>
<path style=" stroke:none;fill-rule:nonzero;fill:rgb(0%,0%,0%);fill-opacity:1;" d="M 16.703125 4.730469 L 7.328125 4.730469 C 6.554688 4.730469 5.921875 4.101562 5.921875 3.324219 L 5.921875 1.917969 C 5.921875 1.144531 6.554688 0.511719 7.328125 0.511719 L 16.703125 0.511719 C 17.480469 0.511719 18.109375 1.144531 18.109375 1.917969 L 18.109375 3.324219 C 18.109375 4.101562 17.480469 4.730469 16.703125 4.730469 Z M 7.328125 1.449219 C 7.070312 1.449219 6.859375 1.660156 6.859375 1.917969 L 6.859375 3.324219 C 6.859375 3.585938 7.070312 3.792969 7.328125 3.792969 L 16.703125 3.792969 C 16.960938 3.792969 17.171875 3.585938 17.171875 3.324219 L 17.171875 1.917969 C 17.171875 1.660156 16.960938 1.449219 16.703125 1.449219 Z M 7.328125 1.449219 "/>
<path style=" stroke:none;fill-rule:nonzero;fill:rgb(0%,0%,0%);fill-opacity:1;" d="M 8.265625 3.324219 C 8.007812 3.324219 7.796875 3.117188 7.796875 2.855469 L 7.796875 2.386719 C 7.796875 2.128906 8.007812 1.917969 8.265625 1.917969 C 8.523438 1.917969 8.734375 2.128906 8.734375 2.386719 L 8.734375 2.855469 C 8.734375 3.117188 8.523438 3.324219 8.265625 3.324219 Z M 8.265625 3.324219 "/>
<path style=" stroke:none;fill-rule:nonzero;fill:rgb(0%,0%,0%);fill-opacity:1;" d="M 10.140625 3.324219 C 9.882812 3.324219 9.671875 3.117188 9.671875 2.855469 L 9.671875 2.386719 C 9.671875 2.128906 9.882812 1.917969 10.140625 1.917969 C 10.398438 1.917969 10.609375 2.128906 10.609375 2.386719 L 10.609375 2.855469 C 10.609375 3.117188 10.398438 3.324219 10.140625 3.324219 Z M 10.140625 3.324219 "/>
<path style=" stroke:none;fill-rule:nonzero;fill:rgb(0%,0%,0%);fill-opacity:1;" d="M 12.015625 3.324219 C 11.757812 3.324219 11.546875 3.117188 11.546875 2.855469 L 11.546875 2.386719 C 11.546875 2.128906 11.757812 1.917969 12.015625 1.917969 C 12.273438 1.917969 12.484375 2.128906 12.484375 2.386719 L 12.484375 2.855469 C 12.484375 3.117188 12.273438 3.324219 12.015625 3.324219 Z M 12.015625 3.324219 "/>
<path style=" stroke:none;fill-rule:nonzero;fill:rgb(0%,0%,0%);fill-opacity:1;" d="M 13.890625 3.324219 C 13.632812 3.324219 13.421875 3.117188 13.421875 2.855469 L 13.421875 2.386719 C 13.421875 2.128906 13.632812 1.917969 13.890625 1.917969 C 14.148438 1.917969 14.359375 2.128906 14.359375 2.386719 L 14.359375 2.855469 C 14.359375 3.117188 14.148438 3.324219 13.890625 3.324219 Z M 13.890625 3.324219 "/>
<path style=" stroke:none;fill-rule:nonzero;fill:rgb(0%,0%,0%);fill-opacity:1;" d="M 15.765625 3.324219 C 15.507812 3.324219 15.296875 3.117188 15.296875 2.855469 L 15.296875 2.386719 C 15.296875 2.128906 15.507812 1.917969 15.765625 1.917969 C 16.023438 1.917969 16.234375 2.128906 16.234375 2.386719 L 16.234375 2.855469 C 16.234375 3.117188 16.023438 3.324219 15.765625 3.324219 Z M 15.765625 3.324219 "/>
<path style=" stroke:none;fill-rule:nonzero;fill:rgb(0%,0%,0%);fill-opacity:1;" d="M 18.578125 19.730469 L 5.453125 19.730469 C 5.195312 19.730469 4.984375 19.523438 4.984375 19.261719 L 4.984375 11.761719 C 4.984375 11.503906 5.195312 11.292969 5.453125 11.292969 L 18.578125 11.292969 C 18.835938 11.292969 19.046875 11.503906 19.046875 11.761719 L 19.046875 19.261719 C 19.046875 19.523438 18.835938 19.730469 18.578125 19.730469 Z M 5.921875 18.792969 L 18.109375 18.792969 L 18.109375 12.230469 L 5.921875 12.230469 Z M 5.921875 18.792969 "/>
</g>
</svg>
