<?xml version="1.0" ?>
<!DOCTYPE svg  PUBLIC '-//W3C//DTD SVG 1.1//EN'  'http://www.w3.org/Graphics/SVG/1.1/DTD/svg11.dtd'>
<!-- Uploaded to: SVG Repo, www.svgrepo.com, Generator: SVG Repo Mixer Tools -->
<svg fill="#000000" width="800px" height="800px" viewBox="0 0 512 512" version="1.1" xml:space="preserve" xmlns="http://www.w3.org/2000/svg" xmlns:xlink="http://www.w3.org/1999/xlink">
<g id="_x35_91_x2C__Beauty_x2C__bottle_x2C__box_x2C__capsule_x2C__drug_x2C__drugs">
<g>
<g>
<g>
<g>
<g>
<path d="M336.348,150.957h-160c-5.523,0-10-4.477-10-10v-50c0-5.523,4.477-10,10-10h160c5.522,0,10,4.477,10,10v50        C346.348,146.479,341.87,150.957,336.348,150.957z M186.347,130.957h140v-30h-140V130.957z"/>
</g>
<g>
<path d="M336.348,500.956h-160c-38.598,0-70-31.402-70-70v-190c0-45.158,23.689-84.762,64.993-108.656        c1.522-0.881,3.249-1.344,5.007-1.344h160c1.758,0,3.485,0.463,5.008,1.344c44.34,25.651,64.992,60.177,64.992,108.656v190        C406.348,469.554,374.945,500.956,336.348,500.956z M179.082,150.957c-34.034,20.578-52.735,52.443-52.735,90v190        c0,27.57,22.43,50,50,50h160c27.57,0,50-22.43,50-50v-190c0-40.331-16.287-68.191-52.724-90H179.082z"/>
</g>
<g>
<path d="M356.348,100.957h-200c-16.542,0-30-13.458-30-30v-30c0-16.542,13.458-30,30-30h200c16.542,0,30,13.458,30,30v30        C386.348,87.499,372.89,100.957,356.348,100.957z M156.347,30.957c-5.514,0-10,4.486-10,10v30c0,5.514,4.486,10,10,10h200        c5.514,0,10-4.486,10-10v-30c0-5.514-4.486-10-10-10H156.347z"/>
</g>
<g>
<path d="M176.347,70.957c-5.523,0-10-4.477-10-10v-10c0-5.523,4.477-10,10-10s10,4.477,10,10v10        C186.347,66.479,181.87,70.957,176.347,70.957z"/>
</g>
<g>
<path d="M216.347,70.957c-5.523,0-10-4.477-10-10v-10c0-5.523,4.477-10,10-10s10,4.477,10,10v10        C226.347,66.479,221.87,70.957,216.347,70.957z"/>
</g>
<g>
<path d="M256.347,70.957c-5.523,0-10-4.477-10-10v-10c0-5.523,4.477-10,10-10s10,4.477,10,10v10        C266.348,66.479,261.87,70.957,256.347,70.957z"/>
</g>
<g>
<path d="M296.348,70.957c-5.522,0-10-4.477-10-10v-10c0-5.523,4.478-10,10-10s10,4.477,10,10v10        C306.348,66.479,301.87,70.957,296.348,70.957z"/>
</g>
<g>
<path d="M336.348,70.957c-5.522,0-10-4.477-10-10v-10c0-5.523,4.478-10,10-10s10,4.477,10,10v10        C346.348,66.479,341.87,70.957,336.348,70.957z"/>
</g>
</g>
<g>
<path d="M396.348,420.956h-280c-5.523,0-10-4.478-10-10v-160c0-5.523,4.477-10,10-10h280c5.522,0,10,4.477,10,10v160       C406.348,416.479,401.87,420.956,396.348,420.956z M126.347,400.956h260v-140h-260V400.956z"/>
</g>
</g>
</g>
</g>
</g>
<g id="Layer_1"/>
</svg>